# xmcd CD database file
#
# Track frame offsets:
#	150
#	21897
#	38087
#	65123
#	91229
#	110019
#	124963
#	146135
#	162480
#	179985
#	195609
#	213587
#	234128
#	258626
#	282837
#
# Disc length: 4062 seconds
#
# Revision: 0
# Processed by: cddbd v1.5.2PL0 Copyright (c) Steve Scherf et al.
# Submitted via: CDex 1.51
#
DISCID=eb0fdc0f
DTITLE=Michel polnareff - Triple best of 3
DYEAR=2009
DGENRE=Français
TTITLE0=Lettre à France
TTITLE1=Une simple mélodie
TTITLE2=Bulle de Savon
TTITLE3=Tam tam
TTITLE4=Elle rit
TTITLE5=Radio
TTITLE6=Je t'aime
TTITLE7=Où est la Tosca ?
TTITLE8=Y'a que pas pouvoir qu'on peut
TTITLE9=Bronzer vert
TTITLE10=Dans la rue
TTITLE11=Viens te faire chahuter
TTITLE12=Sur un seul mot de toi
TTITLE13=Goodbye marylou
TTITLE14=Ophélie flagrant des lits
EXTD=YEAR: 2009
EXTT0=
EXTT1=
EXTT2=
EXTT3=
EXTT4=
EXTT5=
EXTT6=
EXTT7=
EXTT8=
EXTT9=
EXTT10=
EXTT11=
EXTT12=
EXTT13=
EXTT14=
PLAYORDER=
